<?xml version="1.0" standalone="no"?>
<!DOCTYPE svg PUBLIC "-//W3C//DTD SVG 20010904//EN"
 "http://www.w3.org/TR/2001/REC-SVG-20010904/DTD/svg10.dtd">
<svg version="1.0" xmlns="http://www.w3.org/2000/svg"
 width="3072.000000pt" height="3072.000000pt" viewBox="0 0 3072.000000 3072.000000"
 preserveAspectRatio="xMidYMid meet">
<metadata>
Created by potrace 1.14, written by Peter Selinger 2001-2017
</metadata>
<g transform="translate(0.000000,3072.000000) scale(0.100000,-0.100000)"
fill="#000000" stroke="none">
<path d="M15019 23935 c-2 -1 -62 -6 -134 -9 -136 -7 -191 -11 -290 -21 -33
-3 -79 -8 -103 -10 -51 -4 -227 -25 -262 -30 -14 -2 -45 -7 -70 -10 -57 -8
-68 -10 -220 -35 -195 -32 -500 -96 -670 -140 -85 -22 -162 -42 -170 -44 -95
-23 -345 -101 -510 -158 -63 -22 -133 -46 -155 -53 -46 -15 -265 -99 -310
-119 -16 -8 -97 -42 -180 -77 -264 -112 -651 -310 -935 -477 -322 -189 -696
-445 -950 -649 -243 -195 -378 -311 -564 -487 -71 -66 -136 -122 -145 -124 -9
-1 -59 16 -111 39 -52 22 -131 56 -175 74 -44 18 -168 70 -275 115 -107 45
-278 115 -380 156 -102 41 -194 79 -205 84 -41 19 -762 304 -955 377 -52 19
-108 41 -125 48 -16 7 -100 38 -185 69 -85 32 -166 62 -180 67 -13 6 -74 29
-135 51 -60 22 -157 57 -215 78 -746 272 -1572 544 -2195 721 -115 32 -232 66
-260 74 -131 38 -254 70 -536 140 -169 41 -326 79 -350 84 -24 5 -76 16 -114
24 -39 9 -82 18 -95 21 -14 2 -59 11 -100 20 -41 8 -86 17 -100 20 -14 3 -61
12 -105 20 -44 8 -93 17 -110 20 -36 6 -220 36 -255 42 -14 2 -79 11 -145 19
-66 8 -140 18 -165 21 -25 3 -61 7 -80 9 -19 1 -73 6 -120 10 -47 4 -107 8
-135 10 -77 6 -486 7 -525 1 -19 -3 -57 -7 -85 -10 -245 -24 -454 -86 -597
-178 -360 -229 -361 -648 -3 -1238 81 -134 267 -396 336 -475 10 -11 51 -60
91 -110 40 -49 75 -92 78 -95 4 -3 62 -68 130 -145 185 -209 646 -667 915
-910 48 -44 93 -85 99 -91 9 -8 199 -176 321 -283 66 -57 233 -199 285 -241
30 -25 57 -47 60 -50 3 -3 37 -32 75 -64 80 -66 62 -51 264 -215 86 -69 163
-131 171 -138 8 -7 65 -51 125 -98 61 -48 124 -97 140 -110 109 -87 152 -119
245 -190 58 -43 107 -81 110 -85 3 -3 50 -39 105 -80 55 -41 105 -78 110 -82
245 -193 1295 -945 1748 -1253 718 -488 1101 -742 1632 -1085 72 -46 173 -111
225 -145 52 -33 122 -78 155 -98 33 -21 87 -55 120 -76 33 -21 195 -122 360
-226 165 -103 316 -198 335 -210 19 -13 76 -48 125 -78 50 -30 140 -85 200
-122 61 -37 148 -91 194 -119 47 -28 100 -60 118 -71 18 -11 104 -63 190 -114
87 -52 181 -109 208 -127 28 -17 151 -92 275 -165 124 -74 234 -139 245 -146
11 -7 27 -16 35 -20 8 -4 69 -39 135 -78 131 -78 572 -336 645 -377 25 -14
180 -103 345 -198 253 -146 654 -373 825 -468 25 -13 59 -32 75 -42 17 -10 53
-30 80 -45 28 -15 136 -75 240 -133 105 -58 208 -115 230 -127 22 -12 108 -59
190 -105 83 -45 184 -101 225 -123 41 -22 89 -47 105 -57 27 -16 68 -38 240
-130 28 -15 79 -43 115 -62 36 -19 101 -55 145 -78 119 -64 204 -109 260 -140
55 -30 161 -86 330 -175 61 -32 133 -70 160 -85 66 -37 372 -196 700 -365 105
-54 233 -121 285 -148 172 -90 1589 -800 1855 -929 477 -231 677 -328 680
-328 2 0 91 -43 200 -95 108 -52 198 -95 200 -95 1 0 65 -30 141 -66 160 -77
603 -282 844 -391 91 -41 203 -93 250 -115 47 -22 105 -48 130 -58 25 -10 83
-36 130 -58 47 -22 105 -48 130 -60 264 -118 456 -202 680 -299 58 -25 125
-55 150 -65 25 -11 54 -24 65 -28 11 -5 41 -18 66 -29 106 -46 482 -207 589
-251 63 -26 210 -87 325 -135 116 -48 260 -107 320 -131 61 -25 119 -49 130
-54 29 -14 730 -292 745 -295 3 -1 19 -7 35 -14 67 -28 595 -229 765 -291 58
-21 137 -50 175 -65 249 -93 830 -296 1185 -415 204 -68 590 -193 605 -196 6
-1 42 -11 80 -23 258 -81 571 -173 843 -247 28 -8 78 -21 110 -30 67 -18 240
-64 262 -69 8 -1 35 -8 60 -15 25 -7 52 -14 60 -15 17 -4 148 -35 170 -41 83
-21 316 -72 495 -109 257 -52 232 -47 430 -80 195 -32 361 -55 510 -70 33 -4
76 -8 95 -10 237 -27 735 -27 885 0 156 28 209 40 279 62 257 80 416 220 475
418 58 193 16 424 -130 724 -112 229 -314 528 -533 789 -38 45 -150 177 -161
188 -5 6 -44 48 -85 94 -209 232 -709 727 -898 889 -13 11 -62 55 -110 99
-147 134 -403 354 -672 577 -91 76 -174 145 -185 154 -41 34 -462 368 -544
431 -46 36 -106 83 -135 106 -65 52 -664 502 -811 610 -175 128 -351 255 -428
310 -168 118 -527 371 -592 416 -268 189 -651 448 -1130 766 -236 157 -431
286 -432 286 -1 1 9 66 23 145 13 79 26 162 29 185 3 22 7 50 9 61 2 12 7 48
11 80 4 33 9 71 11 85 2 14 6 50 9 80 3 30 7 69 10 85 3 27 7 66 20 225 27
324 27 958 0 1295 -8 101 -15 181 -20 215 -2 19 -7 62 -10 95 -3 33 -7 71 -10
85 -2 14 -7 48 -10 75 -8 64 -14 107 -25 175 -5 30 -12 73 -15 95 -3 23 -8 52
-10 65 -3 14 -8 41 -11 60 -28 177 -138 647 -198 850 -73 247 -160 509 -222
668 -13 34 -36 92 -50 130 -163 416 -424 937 -677 1346 -30 49 -128 202 -134
211 -5 6 -34 48 -65 95 -32 47 -72 106 -90 131 -99 140 -151 210 -161 221 -7
7 -39 49 -72 93 -96 127 -297 367 -450 535 -194 214 -687 682 -859 815 -21 17
-44 35 -50 40 -51 48 -262 208 -451 342 -162 116 -145 104 -243 168 -621 408
-1291 734 -1980 965 -245 82 -575 179 -669 196 -12 2 -34 9 -48 14 -14 5 -25
8 -25 5 0 -2 -21 2 -47 10 -27 7 -66 16 -88 21 -22 4 -44 8 -50 10 -15 4 -255
52 -295 59 -19 3 -42 8 -50 10 -8 2 -35 7 -60 10 -25 3 -58 8 -75 11 -16 3
-42 7 -56 9 -14 2 -59 8 -100 14 -144 20 -203 28 -304 36 -44 4 -87 8 -95 10
-8 2 -65 6 -125 10 -61 4 -126 9 -145 11 -41 6 -846 14 -851 9z m-8284 -2918
c11 -3 56 -8 100 -12 44 -3 91 -8 105 -10 14 -2 47 -6 74 -9 26 -4 92 -13 145
-22 107 -17 111 -17 196 -33 33 -6 74 -14 90 -17 153 -28 684 -154 780 -185
17 -5 104 -30 195 -55 91 -25 166 -47 168 -49 2 -1 -46 -67 -105 -146 -140
-188 -346 -496 -458 -684 -48 -83 -96 -162 -106 -177 -11 -15 -19 -29 -19 -31
0 -2 -30 -57 -66 -123 -72 -130 -232 -454 -284 -574 -18 -41 -43 -97 -55 -125
-21 -45 -40 -93 -106 -257 l-18 -46 172 -134 c95 -74 255 -196 357 -272 102
-76 192 -143 200 -150 20 -15 321 -233 385 -278 28 -19 104 -73 170 -119 153
-108 493 -342 550 -379 13 -8 135 -90 272 -181 136 -91 320 -212 408 -269 255
-164 410 -264 428 -275 24 -14 163 -102 222 -140 28 -18 142 -89 255 -159 113
-69 212 -131 220 -136 8 -5 47 -28 85 -52 39 -23 124 -75 190 -115 154 -94
124 -77 320 -194 173 -104 416 -248 470 -279 17 -9 80 -46 140 -82 61 -36 126
-75 145 -85 19 -11 188 -108 375 -215 187 -107 365 -208 395 -225 30 -16 73
-40 95 -53 205 -116 289 -163 475 -265 118 -65 235 -129 260 -143 25 -13 73
-40 108 -58 138 -75 201 -109 292 -159 52 -28 158 -85 235 -125 77 -40 145
-76 150 -80 6 -4 73 -40 150 -80 77 -40 163 -85 190 -100 28 -15 136 -71 240
-125 105 -54 228 -118 275 -143 104 -55 1290 -648 1450 -725 63 -30 183 -87
265 -127 83 -40 186 -89 230 -110 44 -21 121 -57 170 -80 172 -81 231 -109
425 -198 210 -97 317 -146 365 -167 17 -7 70 -31 118 -54 49 -23 91 -41 93
-41 2 0 36 -15 76 -34 91 -43 515 -228 703 -308 77 -32 154 -65 170 -72 17 -8
86 -37 155 -66 69 -28 139 -58 155 -65 47 -20 240 -99 355 -145 138 -55 198
-79 235 -95 17 -7 102 -41 190 -75 88 -34 169 -65 180 -70 48 -22 543 -204
820 -302 184 -65 613 -208 624 -208 4 0 25 28 48 63 23 34 53 78 66 97 73 105
226 349 297 475 135 238 301 562 383 745 8 19 24 55 35 80 78 171 239 589 273
708 7 23 15 42 18 42 11 0 146 -113 381 -320 369 -323 713 -674 965 -985 93
-114 295 -409 295 -431 0 -3 8 -18 18 -32 40 -58 114 -242 142 -350 33 -127
29 -293 -10 -393 -42 -112 -138 -218 -248 -273 -55 -28 -176 -72 -218 -80 -16
-3 -66 -12 -111 -20 -99 -19 -243 -29 -383 -29 -109 0 -327 10 -370 17 -14 2
-56 7 -95 10 -100 10 -340 43 -430 60 -23 4 -178 33 -215 40 -14 2 -70 14
-125 26 -55 12 -109 23 -120 25 -11 2 -69 15 -130 30 -60 14 -120 28 -133 31
-33 7 -242 61 -351 90 -51 14 -105 28 -119 30 -14 3 -30 8 -35 11 -5 3 -41 14
-81 25 -85 22 -72 19 -221 63 -214 65 -237 72 -430 133 -281 90 -983 331
-1050 362 -11 5 -83 32 -160 60 -77 28 -154 58 -172 66 -17 8 -34 14 -38 14
-18 0 -1022 401 -1190 475 -16 8 -91 39 -165 70 -138 58 -152 64 -253 109 -32
14 -60 26 -62 26 -3 0 -35 14 -72 31 -111 50 -126 56 -173 77 -295 129 -762
341 -1009 458 -73 35 -135 64 -137 64 -3 0 -173 81 -458 218 -216 103 -1222
605 -1363 680 -62 33 -113 58 -113 56 0 -3 -17 6 -37 19 -21 13 -74 42 -118
64 -92 46 -636 334 -780 413 -64 35 -161 88 -250 135 -38 21 -83 45 -100 55
-16 10 -59 33 -95 52 -36 19 -180 99 -320 178 -140 79 -280 157 -310 173 -30
17 -72 41 -92 54 -21 13 -39 23 -42 23 -2 0 -81 45 -176 100 -94 55 -175 100
-179 100 -4 0 -12 5 -19 12 -6 6 -41 28 -76 47 -52 30 -444 259 -496 292 -8 5
-132 79 -275 166 -143 86 -309 187 -370 224 -60 37 -145 90 -188 116 -153 93
-425 266 -782 496 -296 190 -1027 683 -1270 857 -16 12 -73 52 -125 88 -52 37
-111 79 -130 93 -19 14 -96 70 -170 124 -146 106 -319 234 -335 247 -18 14
-81 62 -109 83 -46 33 -441 338 -446 344 -3 4 -39 33 -80 66 -91 72 -97 77
-113 90 -7 6 -37 30 -67 55 -64 52 -373 312 -380 320 -3 3 -43 38 -90 79 -397
345 -826 774 -1048 1046 -31 39 -60 72 -63 75 -21 19 -179 235 -242 330 -174
267 -264 492 -271 679 -13 344 272 570 777 617 39 3 74 8 75 10 6 4 443 -4
467 -9z"/>
<path d="M6856 16417 c-3 -17 -8 -63 -11 -102 -3 -38 -8 -77 -10 -85 -2 -8 -7
-60 -11 -115 -3 -55 -8 -108 -10 -118 -25 -135 -25 -987 1 -1282 15 -167 26
-285 30 -306 2 -13 7 -51 10 -84 7 -66 13 -113 21 -163 3 -17 7 -49 10 -70 2
-20 11 -75 19 -122 8 -47 17 -98 20 -115 3 -16 10 -52 15 -80 5 -27 12 -61 14
-75 4 -20 37 -177 51 -240 45 -206 142 -548 226 -802 352 -1061 933 -2081
1660 -2913 188 -216 521 -557 704 -722 272 -244 592 -500 844 -674 141 -97
263 -179 267 -179 3 0 10 -5 17 -10 14 -13 254 -162 277 -173 8 -4 38 -21 65
-37 28 -17 109 -62 180 -101 72 -38 137 -74 145 -79 26 -15 229 -116 350 -173
416 -197 966 -397 1421 -516 140 -37 377 -93 439 -105 14 -2 70 -13 125 -24
112 -23 130 -26 265 -48 52 -8 106 -17 120 -19 95 -18 376 -49 630 -70 290
-24 1097 -25 1228 -1 9 2 67 7 127 11 61 4 117 8 125 10 8 1 42 6 75 9 33 4
78 9 100 12 22 3 54 7 70 9 45 5 197 25 225 31 14 2 41 7 60 10 78 12 141 24
160 29 8 2 38 7 65 11 28 3 53 8 56 10 3 2 21 6 40 9 29 5 324 71 354 79 6 2
24 6 40 10 402 102 928 279 1255 423 30 13 88 38 129 56 139 61 546 265 706
354 310 174 716 438 960 625 82 63 369 294 395 318 19 18 45 39 58 47 12 9 22
19 22 23 0 4 -69 35 -152 70 -84 35 -186 78 -226 97 -41 18 -75 33 -77 33 -8
0 -339 143 -419 181 -22 11 -43 19 -47 19 -5 0 -52 20 -105 45 -53 25 -98 45
-100 45 -3 0 -469 206 -609 270 -22 10 -85 38 -140 63 -55 25 -136 61 -180 82
-44 20 -93 43 -110 50 -93 42 -290 132 -350 160 -38 18 -101 47 -140 65 -38
18 -104 48 -145 67 -41 20 -106 50 -145 68 -38 18 -162 76 -275 130 -113 54
-237 112 -275 130 -67 31 -220 105 -710 343 -121 59 -537 266 -925 461 -723
364 -786 396 -998 506 -68 36 -199 103 -290 151 -162 84 -424 222 -587 309
-148 79 -520 278 -570 305 -27 15 -86 47 -130 70 -85 45 -127 68 -270 147 -49
28 -130 71 -179 97 -49 26 -99 53 -110 61 -12 7 -48 27 -81 45 -104 57 -236
129 -290 160 -37 21 -83 47 -162 91 -18 10 -63 35 -100 55 -37 20 -72 40 -78
44 -5 4 -39 23 -75 43 -36 19 -141 78 -234 131 -93 53 -173 96 -177 96 -5 0
-9 5 -9 10 0 6 -4 10 -9 10 -12 0 -668 376 -1012 580 -55 33 -102 60 -103 60
-2 0 -62 36 -135 80 -73 44 -134 80 -135 80 -2 0 -62 36 -135 80 -73 44 -137
80 -142 80 -5 0 -9 4 -9 9 0 5 -8 11 -17 14 -10 4 -39 19 -64 34 -25 15 -83
51 -128 78 -45 28 -94 57 -109 66 -69 41 -640 390 -702 429 -8 6 -109 68 -225
140 -115 71 -215 133 -220 138 -6 5 -15 11 -21 13 -5 2 -37 21 -69 42 -33 21
-145 92 -250 158 -104 66 -206 131 -225 143 -19 13 -60 39 -90 58 -113 72
-409 264 -520 337 -63 42 -119 78 -125 81 -5 3 -50 32 -100 65 -49 34 -95 64
-101 68 -8 4 -14 -5 -18 -26z"/>
</g>
</svg>
